<?xml version="1.0" encoding="UTF-8" standalone="no"?>
<!DOCTYPE svg PUBLIC "-//W3C//DTD SVG 1.1//EN" "http://www.w3.org/Graphics/SVG/1.1/DTD/svg11.dtd">
<svg width="100%" height="100%" viewBox="0 0 3200 2001" version="1.1" xmlns="http://www.w3.org/2000/svg" xmlns:xlink="http://www.w3.org/1999/xlink" xml:space="preserve" xmlns:serif="http://www.serif.com/" style="fill-rule:evenodd;clip-rule:evenodd;stroke-linejoin:round;stroke-miterlimit:2;">
    <g>
        <rect x="0" y="1" width="3200" height="2000" style="fill:none;"/>
        <path d="M367.517,1786.64C367.517,1786.64 30.043,1424.3 310.445,1032.02C559.236,683.954 849.302,707.747 1062.12,848.992C1152.76,909.15 1414.09,856.406 1636.51,502.241C1939.84,19.258 2991.27,312.189 2799.56,1055.27C2706.79,1414.87 3081.91,1427.94 2890.77,1787.4L367.517,1786.64Z" style="fill:rgb(200,176,237);fill-rule:nonzero;"/>
        <path d="M640.192,1295.8L860,1534.63L621.171,1754.44L401.362,1515.61L640.192,1295.8Z" style="fill:rgb(223,235,253);fill-rule:nonzero;"/>
        <path d="M640.192,1295.8L684.461,1343.9L445.632,1563.71L401.362,1515.61L640.192,1295.8Z" style="fill:rgb(190,215,251);fill-rule:nonzero;"/>
        <path d="M1337.69,354.962L1501.46,378.323L1392.78,304.25L1387.26,327.996L1347.43,335.208L1337.69,354.962Z" style="fill:rgb(158,195,246);fill-rule:nonzero;"/>
        <path d="M1501.46,378.323L1365.18,308.06L1231.61,301.341L1501.46,378.323Z" style="fill:rgb(205,224,251);fill-rule:nonzero;"/>
        <path d="M1392.78,304.25L1501.46,378.323L1417.33,262.556L1392.78,304.25Z" style="fill:rgb(205,224,251);fill-rule:nonzero;"/>
        <path d="M2253.46,678.04L2212.27,707.601L2170.87,678.36C2180.04,665.448 2195.2,656.91 2212.27,656.91C2229.24,656.91 2244.29,665.234 2253.46,678.04Z" style="fill:white;fill-rule:nonzero;"/>
        <path d="M2212.27,584.877C2170.87,584.877 2134.26,605.473 2112.06,636.955L2138.21,655.309C2154.64,632.045 2181.75,616.892 2212.27,616.892C2242.58,616.892 2269.47,631.832 2285.91,654.776L2311.95,636.101C2289.64,605.046 2253.25,584.877 2212.27,584.877Z" style="fill:white;fill-rule:nonzero;"/>
        <path d="M2212.27,447.96C2124.66,447.96 2047.18,491.5 2000.23,558.091L2026.37,576.446C2067.56,518.179 2135.54,479.975 2212.27,479.975C2288.36,479.975 2355.91,517.539 2397.21,575.059L2423.14,556.383C2376.08,490.753 2299.14,447.96 2212.27,447.96Z" style="fill:white;fill-rule:nonzero;"/>
        <path d="M2212.27,522.875C2149.95,522.875 2094.67,553.715 2061.06,600.991L2087.2,619.346C2115.05,580.395 2160.73,554.89 2212.27,554.89C2263.39,554.89 2308.74,579.968 2336.7,618.386L2362.63,599.817C2328.91,553.182 2274.06,522.875 2212.27,522.875Z" style="fill:white;fill-rule:nonzero;"/>
        <path d="M1142.51,1083.99C1117.12,1109.46 1089.15,1131.59 1058.94,1150.23C985.739,1096.73 907.522,1050.93 826.033,1013.86C837.236,993.329 848.277,971.647 859.057,949.013C933.646,958.898 1005.35,964.83 1070.82,966.364C1087.91,966.858 1104.5,966.858 1120.59,966.734C1162.32,966.24 1199.47,963.763 1231.29,959.306C1209,1005.49 1179.16,1047.34 1142.51,1083.99ZM678.412,1197.09C712.4,1179.27 746.549,1138.36 772.848,1100.66C786.412,1081.22 799.967,1059.7 813.349,1036.47C890.506,1071.41 964.695,1114.34 1034.39,1164.35C919.512,1225.74 790.146,1232.69 678.412,1197.09ZM391.233,930.492C426.588,931.915 492.134,937.271 575.859,956.327C581.85,957.691 587.836,959.12 593.82,960.579C589.511,985.712 586.331,1009.73 584.368,1032.3C580.648,1075.07 580.384,1124.39 592.314,1159.6C556.005,1139.16 522.708,1113.87 492.827,1083.99C448.284,1039.45 414.008,987.295 391.233,930.492ZM605.436,902.11C602.932,913.279 600.623,924.286 598.504,935.121C592.87,933.755 587.234,932.417 581.593,931.133C486.292,909.44 414.779,905.028 381.629,904.281C373.418,879.547 367.38,854.25 363.558,828.428C428.485,853.403 501.567,877.358 605.436,902.11ZM311.43,781.376C223.641,738.534 183.523,697.179 201.477,667.833C215.964,644.059 268.711,627.963 349.442,622.02C333.167,676.95 327.507,734.058 330.87,790.539C324.183,787.567 317.745,784.472 311.43,781.376ZM407.143,552.557L407.154,552.533C463.904,623.465 547.548,695.978 645.28,758.866C631.422,801.042 619.599,842.493 610.057,882.216C529.026,862.612 434.844,834.884 360.463,803.417C354.294,741.739 361.011,679.302 379.531,620.41C386.72,597.572 396.257,574.032 407.143,552.557ZM368.891,357.088C383.827,333.378 417.205,321.141 464.072,321.141C486.487,321.141 512.005,323.939 540.048,329.633C550.696,331.788 561.571,334.325 572.632,337.243L572.661,337.25C505.749,375.948 446.813,431.951 402.933,502.162L402.91,502.199C361.497,440.709 349.047,388.569 368.891,357.088ZM817.73,299.592C849.556,299.592 880.858,302.794 911.457,309.148C875.366,324.858 838.517,368.583 810.547,408.679C781.92,449.715 753.333,499.937 726.339,556.153C653.474,516.561 584.647,455.865 551.748,384.365C628.563,329.729 720.939,299.592 817.73,299.592ZM1142.51,434.185C1202.09,493.768 1241.62,565.33 1261.61,640.164C1155.71,647.908 1058.67,645.477 971.93,632.921C985.695,576.679 994.962,523.771 999.026,477.038C1003.51,425.432 1002.97,364.306 982.044,329.907C1042.66,353.196 1096.8,388.341 1142.51,434.185ZM939.91,653.956C927.999,698.774 913.327,745.453 896.233,792.584C889.645,810.751 882.822,828.635 875.804,846.163C811.592,822.587 743.438,788.867 676.434,747.216C679.896,737.093 683.469,726.936 687.161,716.757C703.042,672.969 720.279,630.825 738.353,591.357C801.595,622.008 870.103,641.794 939.91,653.956ZM945.616,330.283C959.706,335.393 966.857,355.615 970.376,371.679C975.938,397.066 976.943,432.725 973.285,474.799C969.279,520.854 960.057,573.163 946.332,628.86C878.847,617.249 811.408,598.105 749.317,567.968C775.78,512.782 803.762,463.567 831.739,423.463C855.902,388.825 879.533,362.102 900.075,346.182C910.794,337.875 925.219,328.983 937.85,328.983C940.537,328.983 943.145,329.386 945.616,330.283ZM530.688,400.278C567.609,475.922 638.764,538.246 715.335,579.587C696.785,620.01 679.117,663.152 662.87,707.947C659.841,716.299 656.896,724.636 654.017,732.956C556.979,669.791 474.822,597.312 420.928,527.168L420.906,527.14C449.349,478.616 486.41,435.777 530.688,400.278ZM692.92,900.739C673.378,896.718 654.12,892.517 635.193,888.154C644.103,851.079 655.049,812.427 667.827,773.043C734.251,813.875 801.802,847.09 865.762,870.662C857.738,889.818 849.497,908.498 841.079,926.576C792.497,919.607 742.791,910.964 692.92,900.739ZM802.321,1003.37C744.033,978.254 684.105,957.497 623.578,941.473C625.712,930.489 628.051,919.313 630.592,907.967C647.423,911.794 664.492,915.498 681.775,919.064C732.353,929.408 782.808,938.191 832.197,945.297C822.416,965.536 812.431,984.936 802.321,1003.37ZM637.778,1179.06C623.689,1173.95 616.537,1153.73 613.018,1137.66C607.457,1112.27 606.451,1076.62 610.11,1034.54C611.96,1013.26 614.935,990.639 618.939,966.976C676.688,982.367 733.877,1002.16 789.565,1026.01C777.021,1047.64 764.338,1067.7 751.656,1085.88C727.492,1120.52 703.862,1147.24 683.319,1163.16C670.32,1173.23 651.869,1184.17 637.778,1179.06ZM1241.32,937.266C1208.26,943.209 1167.03,946.676 1118.86,947.171C1044.12,948.083 958.284,942.181 867.826,930.259C875.438,913.689 882.899,896.662 890.177,879.248C918.248,888.639 945.489,896.077 971.47,901.349C1001.23,907.391 1028.4,910.374 1052.64,910.374C1109.47,910.374 1150.18,893.968 1170.29,862.048C1173.6,856.791 1176.3,851.216 1178.38,845.327L1149.41,845.327C1148.93,846.208 1148.42,847.08 1147.89,847.929C1132.95,871.639 1099.57,883.887 1052.71,883.876C1030.29,883.876 1004.77,881.078 976.729,875.384C952.284,870.426 926.65,863.461 900.219,854.689C907.194,837.237 913.976,819.451 920.524,801.394C938.183,752.705 953.3,704.44 965.529,658.091C1064.63,672.701 1168.17,673.14 1267.63,665.639C1273.92,696.149 1277.1,727.375 1277.1,759.088C1277.1,820.875 1265.09,880.804 1241.32,937.266ZM1357.83,857.402L1320.07,856.535C1332.2,872.26 1334.93,886.747 1327.37,899.005C1319.82,911.511 1301.74,921.789 1274.75,929.588C1295.18,875.232 1305.46,817.903 1305.46,759.088C1305.46,631.893 1255.97,507.389 1162.57,414.249C1072.16,323.842 949.955,271.361 817.73,271.361C743.482,271.361 671.739,287.816 606.493,319.279L606.429,319.311C585.453,312.91 565.021,307.664 545.307,303.668C445.793,283.474 375.172,297.431 346.486,342.969C319.188,386.278 334.049,451.473 388.218,527.509L388.198,527.545C376.095,549.906 364.445,576.43 355.881,601.837C254.101,607.904 199.62,625.816 179.809,658.258C156.778,696.023 188.229,746.707 288.895,795.987C302.762,802.797 317.621,809.483 333.222,816.169C345.281,922.125 393.549,1024.83 472.767,1104.05C517.59,1148.75 569.718,1183.92 627.79,1208.56C805.688,1283.6 1017.76,1248.46 1162.57,1104.05C1206.15,1060.47 1240.7,1009.7 1265.09,953.486C1314.74,943.209 1347.43,927.113 1360.43,905.815C1369.47,891.081 1368.36,874.736 1357.83,857.402Z" style="fill:rgb(67,89,245);fill-rule:nonzero;"/>
        <path d="M1132.09,933.52L1064.64,1735.5C1064.64,1735.5 1057.57,1784.11 1093.73,1784.2C1153.19,1784.34 1389.66,1784.2 1389.66,1784.2C1389.66,1784.2 1344.92,1774.08 1345.46,1751.31C1346.1,1724.47 1424.29,925.93 1424.29,925.93L1132.09,933.52Z" style="fill:rgb(216,103,19);fill-rule:nonzero;"/>
        <path d="M1408.85,1769.65C1397.16,1769.68 1171.3,1770.39 1113.4,1769.65C1088.16,1769.33 1083.74,1747.21 1083.53,1732.89C1083.42,1726.03 1084.29,1720.96 1084.29,1720.96L1086.05,1700.11L1090.52,1646.98L1094.47,1600.05L1099.54,1539.73L1103.81,1488.82L1151.74,918.962L1443.94,911.379C1443.94,911.379 1411.01,1245.56 1387.72,1488.82C1385.12,1515.93 1382.64,1541.91 1380.35,1566.17C1379.61,1573.92 1378.9,1581.49 1378.21,1588.86C1376.05,1611.88 1374.07,1633.01 1372.35,1651.68C1371.45,1661.51 1370.61,1670.65 1369.86,1679.02C1366.88,1711.83 1365.14,1732.78 1365.12,1736.76C1365.11,1739.08 1365.3,1741.24 1365.69,1743.25C1370.48,1768.81 1404.46,1769.65 1408.85,1769.65Z" style="fill:rgb(249,151,70);fill-rule:nonzero;"/>
        <path d="M422.456,497.114L586.748,1157.04L609.242,1247.42L685.761,1554.8L2107.37,1554.8L1825.33,497.114L422.456,497.114Z" style="fill:rgb(249,151,70);fill-rule:nonzero;"/>
        <path d="M422.454,497.113L399.685,504.702L655.492,1577.76L685.765,1554.8L422.454,497.113Z" style="fill:rgb(238,152,73);fill-rule:nonzero;"/>
        <path d="M655.492,1577.76L2068.35,1577.76L2107.36,1554.8L685.765,1554.8L655.492,1577.76Z" style="fill:rgb(216,103,19);fill-rule:nonzero;"/>
        <rect x="1151.65" y="1769.97" width="305.9" height="14.53" style="fill:rgb(241,163,79);fill-rule:nonzero;"/>
        <path d="M2038.5,1359.9L1807.83,511.097L420.182,511.097L420.182,497.113L1825.33,497.113L2055.23,1358.02L2038.5,1359.9Z" style="fill:rgb(241,163,79);fill-rule:nonzero;"/>
        <path d="M1379.79,1577.75L1378.21,1588.86L1090.52,1646.98L1094.47,1600.05L1096.35,1577.75L1379.79,1577.75Z" style="fill:rgb(216,103,19);fill-rule:nonzero;"/>
        <path d="M1253.17,1769.97L1183.94,1769.97C1153.74,1769.93 1128.13,1769.84 1113.4,1769.65C1088.16,1769.33 1083.74,1747.21 1083.53,1732.89L1369.86,1679.02C1366.88,1711.83 1365.14,1732.78 1365.12,1736.76L1365.12,1736.98C1365.12,1739.22 1365.32,1741.31 1365.69,1743.25C1370.48,1768.81 1404.46,1769.65 1408.85,1769.65C1402.25,1769.67 1327.48,1769.9 1253.17,1769.97Z" style="fill:rgb(236,132,50);"/>
        <g>
            <path d="M1216.12,1769.99C1205.03,1769.99 1194.22,1769.98 1183.94,1769.97L1253.17,1769.97C1240.7,1769.98 1228.24,1769.99 1216.12,1769.99Z" style="fill:rgb(231,139,55);fill-rule:nonzero;"/>
            <path d="M685.761,1554.8L609.243,1247.42L1310.25,1340.68L685.765,1554.8" style="fill:rgb(236,132,50);fill-rule:nonzero;"/>
            <path d="M422.454,497.113L1825.33,497.113L2052.95,1347.16L626.846,1347.16L422.454,497.113Z" style="fill:rgb(67,89,245);fill-rule:nonzero;"/>
            <g transform="matrix(1,0,0,1,800,500.32)">
                <text x="0px" y="8.596px" style="font-family:'ArialMT', 'Arial', sans-serif;font-size:12px;">C8B0ED</text>
            </g>
            <path d="M1434.25,1454.61C1430.2,1433.77 1410.02,1416.87 1389.17,1416.87C1368.32,1416.87 1354.71,1433.77 1358.76,1454.61C1362.81,1475.46 1383,1492.36 1403.84,1492.36C1424.69,1492.36 1438.31,1475.46 1434.25,1454.61Z" style="fill:rgb(216,103,19);fill-rule:nonzero;"/>
            <path d="M1986.79,1310.32L673.271,1310.32L524.513,717.739L513.116,672.299L503.383,633.537L495.597,602.504L480.567,542.646L1775.15,542.646L1776.06,545.939L1791.64,602.504L1800.2,633.537L1810.89,672.299L1823.42,717.739L1986.79,1310.32Z" style="fill:rgb(233,243,254);fill-rule:nonzero;"/>
            <path d="M1986.79,1312.35L673.271,1312.35L524.513,719.764L513.116,674.325L503.383,635.562L495.597,604.53L480.567,544.671L1775.15,544.671L1776.06,547.965L1791.64,604.53L1800.2,635.562L1810.89,674.325L1823.42,719.764L1986.79,1312.35Z" style="fill:rgb(233,243,254);fill-rule:nonzero;"/>
            <path d="M1791.64,602.504L495.597,602.504L480.567,542.646L1774.66,542.646L1776.06,545.939L1791.64,602.504Z" style="fill:rgb(175,205,251);fill-rule:nonzero;"/>
            <path d="M516.578,572.575C515.015,566.3 518.833,561.213 525.108,561.213C531.383,561.213 537.738,566.3 539.303,572.575C540.867,578.85 537.049,583.937 530.774,583.937C524.499,583.937 518.143,578.85 516.578,572.575Z" style="fill:rgb(233,243,254);fill-rule:nonzero;"/>
            <path d="M554.331,572.575C552.766,566.3 556.584,561.213 562.859,561.213C569.134,561.213 575.489,566.3 577.054,572.575C578.618,578.85 574.8,583.937 568.525,583.937C562.25,583.937 555.895,578.85 554.331,572.575Z" style="fill:rgb(233,243,254);fill-rule:nonzero;"/>
            <path d="M594.98,572.575C593.416,566.3 597.235,561.213 603.51,561.213C609.785,561.213 616.14,566.3 617.704,572.575C619.269,578.85 615.45,583.937 609.175,583.937C602.9,583.937 596.545,578.85 594.98,572.575Z" style="fill:rgb(233,243,254);fill-rule:nonzero;"/>
            <path d="M1082.44,1312.35L952.563,1312.35C951.318,1302.2 950.221,1291.47 949.236,1280.27C947.493,1260.2 946.158,1238.6 945.173,1216.14C944.936,1210.95 944.732,1205.73 944.54,1200.46C944.291,1193.76 944.075,1186.98 943.883,1180.17C943.566,1168.6 943.317,1156.9 943.136,1145.13L943.125,1145.09C942.898,1130.08 942.785,1114.97 942.751,1099.92L942.751,1099.91C942.74,1096.15 942.74,1092.39 942.74,1088.65L942.74,1088.64C942.74,1085.1 942.751,1081.6 942.763,1078.09C942.875,1045.69 943.362,1013.91 944.053,984.356C945.546,918.975 947.969,864.492 949.259,838.304L949.259,838.292C949.779,827.541 950.119,821.565 950.119,821.565L950.153,821.577C950.447,821.622 952.416,821.984 955.517,822.731C957.792,823.286 960.678,824.044 963.96,825.051L963.972,825.051C966.937,825.945 970.208,827.054 973.648,828.356L973.682,828.367C979.533,830.619 985.837,833.494 991.767,837.104C991.858,837.149 991.948,837.195 992.039,837.24C1001.74,843.261 1010.5,851.24 1014.49,861.776C1017.92,870.729 1025.95,918.839 1035.65,982.738C1035.92,984.56 1036.19,986.393 1036.47,988.25C1041.6,1022.18 1047.14,1060.25 1052.71,1099.13C1058.61,1140.32 1064.5,1182.4 1069.93,1221.39C1074.55,1254.83 1078.84,1285.99 1082.44,1312.35Z" style="fill:rgb(43,71,139);fill-rule:nonzero;"/>
            <path d="M1046.07,1312.35L894.89,1312.35C891.992,1299.88 889.276,1287.85 886.865,1276.56C880.222,1245.46 875.854,1219.98 876.091,1206.28C876.204,1199.86 878.626,1194.84 882.791,1190.98C885.643,1188.33 889.31,1186.23 893.622,1184.59C906.377,1179.74 924.7,1178.95 943.883,1180.17C950.402,1180.58 957.011,1181.21 963.53,1182C999.463,1186.36 1032.82,1195.26 1032.82,1195.26C1032.82,1195.26 1035.05,1204.28 1037.68,1220.04C1039.66,1231.87 1041.87,1247.51 1043.51,1265.98C1044.46,1276.71 1045.23,1288.4 1045.66,1300.86C1045.79,1304.61 1045.92,1308.44 1046.07,1312.35Z" style="fill:rgb(35,56,98);fill-rule:nonzero;"/>
            <path d="M976.251,1206.46L974.746,1217.38L967.423,1270.42L966.178,1279.47L961.64,1312.35L804.089,1312.35C802.867,1290.62 801.735,1269.44 801.52,1250.98C801.498,1248.94 801.486,1246.93 801.486,1244.96C801.486,1217.17 803.931,1196.56 811.898,1191.35C820.93,1185.46 850.887,1187.07 882.791,1190.98C885.971,1191.36 889.174,1191.78 892.377,1192.21C910.972,1194.71 929.578,1197.8 944.54,1200.46C952.303,1201.84 959.083,1203.11 964.356,1204.12C971.803,1205.55 976.251,1206.46 976.251,1206.46Z" style="fill:rgb(198,84,71);fill-rule:nonzero;"/>
            <path d="M801.487,848.914C801.487,848.914 888.041,792.947 950.123,821.569C960.016,826.13 971.301,838.858 979.379,847.76C1001.82,872.487 1045.67,1265.28 1045.67,1265.28C1045.67,1265.28 921.195,1307.44 801.487,1250.98L801.487,848.914Z" style="fill:white;fill-rule:nonzero;"/>
            <path d="M955.048,820.15C955.048,820.15 1042.67,856.06 1054.54,883.652C1066.41,911.244 1104.98,1080.68 1104.98,1100.55C1104.98,1120.42 1037.82,1104.99 1027.01,1072.95C1018.03,1046.34 987.746,964.589 971.777,912.884L955.048,820.15Z" style="fill:rgb(43,71,139);fill-rule:nonzero;"/>
            <path d="M936.85,847.513C917.721,851.264 889.622,847.265 869.049,833.706C878.337,811.521 882.145,794.004 883.5,782.669C883.579,782.066 883.638,781.483 883.697,780.919C884.311,775.044 884.222,771.058 883.935,769.228L933.388,769.228C933.388,769.228 946.908,775.41 946.908,779.683C946.908,781.967 946.928,784.153 946.968,786.24C947.067,791.927 947.294,796.892 947.591,801.155C948.531,815.032 950.123,821.569 950.123,821.569C950.123,821.569 956.166,843.725 936.85,847.513Z" style="fill:rgb(255,178,125);fill-rule:nonzero;"/>
            <path d="M947.591,801.155C910.125,808.395 888.375,787.921 883.5,782.669C882.807,781.918 882.451,781.473 882.451,781.473C882.847,781.275 883.262,781.097 883.697,780.919C897.643,775.271 929.293,779.762 946.968,786.24C947.067,791.927 947.294,796.892 947.591,801.155Z" style="fill:rgb(226,145,90);fill-rule:nonzero;"/>
            <path d="M871.262,761.1C877.957,797.132 924.451,795.949 944.543,793.684C950.198,793.055 953.755,792.333 953.755,792.333C960.131,790.63 963.688,780.588 965.341,767.434C968.621,741.401 964.477,703.187 960.081,693.414C953.461,678.707 940.995,662.8 894.173,674.277C847.343,685.762 862.671,714.932 871.262,761.1Z" style="fill:rgb(255,178,125);fill-rule:nonzero;"/>
            <path d="M961.824,673.313C955.424,664.454 941.855,653.628 929.532,646.961C903.057,632.638 869.172,647.412 869.03,647.474C830.786,664.289 820.799,693.548 841.075,739.127C862.516,787.325 882.931,781.901 882.931,781.901C882.931,781.901 878.598,779.206 878.989,764.184C879.012,763.33 879.046,762.617 879.085,762.003C879.282,758.925 878.197,755.838 875.896,753.784C871.146,749.544 868.83,736.722 872.808,733.152C877.606,728.845 884.35,734.077 886.504,738.1C888.386,740.941 891.757,741.937 894.897,739.952C906.8,732.427 899.068,717.376 910.442,708.169C921.816,698.961 944.896,706.692 961.959,699.354C984.294,691.032 966.646,679.99 961.824,673.313Z" style="fill:rgb(35,56,98);fill-rule:nonzero;"/>
            <path d="M967.967,1312.35L779.508,1312.35C780.854,1273.27 782.586,1226.61 784.408,1179.37C784.872,1167.12 785.359,1154.82 785.834,1142.62C786.049,1137.45 786.241,1132.31 786.445,1127.17C790.61,1022.26 794.741,927.52 795.612,922.416C797.593,910.872 799.46,901.037 801.486,892.503C807.405,867.65 814.762,854.024 830.81,842.299C832.372,841.11 845.206,834.648 856.512,829.012C865.747,824.429 873.963,820.422 874.212,820.309L874.212,820.297L874.224,820.297C876.091,821.203 878.151,823.806 880.324,827.666C882.497,831.524 884.783,836.663 887.125,842.661C895.738,864.787 905.041,898.649 911.503,923.943L911.526,924.022L911.538,924.068L911.538,924.079C915.702,940.41 918.69,953.12 919.539,956.775C920.987,962.932 922.889,974.849 925.141,990.988L925.141,991.033C928.186,1013.05 931.818,1042.91 935.667,1076.81L935.667,1076.82C936.063,1080.31 936.458,1083.83 936.854,1087.38C937.308,1091.44 937.771,1095.55 938.235,1099.7L938.235,1099.72C938.383,1101.05 938.53,1102.39 938.666,1103.72L938.666,1103.73C940.148,1117.16 941.642,1131 943.125,1145.09L943.136,1145.13C944.403,1156.74 962.014,1165.15 963.236,1176.98C963.326,1177.84 963.417,1179.58 963.53,1182C963.756,1187.01 964.028,1194.94 964.356,1204.12C964.492,1208.2 964.639,1212.54 964.798,1216.96C965.488,1236.63 966.337,1258.18 967.299,1268.55C967.344,1269.04 967.389,1269.66 967.423,1270.42C967.537,1272.49 967.627,1275.53 967.706,1279.36C967.865,1287.48 967.944,1299.11 967.967,1312.35Z" style="fill:rgb(43,71,139);fill-rule:nonzero;"/>
            <path d="M839.409,964.708C839.353,964.947 836.408,1070.79 916.028,1083.65C995.648,1096.51 942.746,1099.91 942.746,1099.91C942.746,1099.91 792.941,1093.54 790.468,1089.59C787.995,1085.63 839.409,964.708 839.409,964.708Z" style="fill:rgb(35,56,98);fill-rule:nonzero;"/>
            <path d="M906.681,1129.09C906.681,1129.09 905.187,1130.15 902.319,1132L902.17,1132.09C890.024,1139.84 853.973,1160.98 801.483,1175.15C795.975,1176.64 790.277,1178.06 784.412,1179.36C784.877,1167.12 785.362,1154.82 785.836,1142.62C778.903,1142.08 772.267,1141.2 766.104,1139.89C766.313,1138.28 766.53,1136.67 766.737,1135.05C773.414,1132.31 780.05,1129.67 786.45,1127.17C791.662,1125.13 796.706,1123.19 801.483,1121.4C823.045,1113.21 839.028,1107.66 839.028,1107.66L902.853,1127.87L906.681,1129.09Z" style="fill:rgb(35,56,98);fill-rule:nonzero;"/>
            <path d="M923.574,1127.32C923.574,1127.32 915.374,1129.37 902.319,1132L902.18,1132.03C878.106,1136.86 837.634,1143.65 801.483,1143.28C796.152,1143.22 790.91,1143.02 785.836,1142.62C778.903,1142.08 772.267,1141.2 766.104,1139.89C752.891,1137.1 741.823,1132.38 734.583,1125C680.808,1070.23 763.929,873.644 781.405,854.515C801.81,832.182 839.048,824.349 859.611,821.659C860.471,821.55 861.292,821.441 862.093,821.342C869.323,820.481 873.962,820.304 874.219,820.293L874.229,820.293C874.229,820.293 872.617,825.476 869.917,834.269C868.868,837.671 867.652,841.618 866.317,846.019C853.687,887.382 829.315,968.673 818.575,1014.52C814.638,1031.29 812.531,1043.32 813.491,1046.91C817.684,1062.56 861.134,1070.62 888.66,1074.18C900.143,1075.66 908.856,1076.36 910.805,1076.51C910.943,1076.51 911.072,1076.52 911.21,1076.54L912.803,1083.07L916.611,1098.73L920.359,1114.11L923.574,1127.32Z" style="fill:rgb(43,71,139);fill-rule:nonzero;"/>
            <path d="M1073.56,1221.55L888.871,1213.77L926.341,983.607L1111.03,991.388L1073.56,1221.55Z" style="fill:rgb(249,151,70);fill-rule:nonzero;"/>
            <path d="M911.211,1076.54C911.211,1076.54 947.163,1074.04 948.966,1082.42C953.169,1101.95 918.058,1117.99 906.683,1116.89C895.309,1115.8 902.937,1075.24 911.211,1076.54Z" style="fill:rgb(255,178,125);fill-rule:nonzero;"/>
            <path d="M1100.93,1038.13C1100.93,1038.13 1066.53,1027.37 1062.84,1035.11C1054.23,1053.14 1084.68,1076.87 1096,1078.43C1107.32,1079.99 1109.28,1038.77 1100.93,1038.13Z" style="fill:rgb(255,178,125);fill-rule:nonzero;"/>
            <path d="M877.959,808.736C877.959,808.736 862.834,815.945 855.252,826.825C855.252,826.825 911.787,924.983 911.535,924.063C911.282,923.143 892.424,821.309 877.959,808.736Z" style="fill:rgb(35,56,98);fill-rule:nonzero;"/>
            <path d="M948.375,810.12C953.354,811.999 962.904,821.782 965.056,827.191L971.777,912.884C971.777,912.884 957.427,849.996 950.123,821.569C948.266,814.343 948.608,812.148 948.375,810.12Z" style="fill:rgb(35,56,98);fill-rule:nonzero;"/>
            <path d="M987.563,986.186C987.563,986.186 989.023,979.8 997.43,980.542C1005.84,981.284 1053.06,983.607 1053.06,983.607C1053.06,983.607 1062.17,983.457 1061.33,989.294L987.563,986.186Z" style="fill:rgb(198,84,71);fill-rule:nonzero;"/>
            <path d="M933.388,769.228C933.388,769.228 939.519,774.816 949.409,773.085C955.275,772.059 958.558,764.431 958.558,764.431C958.558,764.431 947.286,762.404 933.388,769.228Z" style="fill:white;fill-rule:nonzero;"/>
            <path d="M1808.52,840.854L1672.1,841.358L1627.86,671.993L1764.28,671.489L1808.52,840.854Z" style="fill:white;fill-rule:nonzero;"/>
            <path d="M1730.45,693.743L1673.25,693.954L1672.59,691.448L1729.79,691.237L1730.45,693.743Z" style="fill:rgb(173,203,249);fill-rule:nonzero;"/>
            <path d="M1739.58,700.705L1667.76,700.97L1667.11,698.464L1738.93,698.199L1739.58,700.705Z" style="fill:rgb(173,203,249);fill-rule:nonzero;"/>
            <path d="M1759.33,735.173L1666.04,735.518L1665.39,733.011L1758.67,732.667L1759.33,735.173Z" style="fill:rgb(173,203,249);fill-rule:nonzero;"/>
            <path d="M1761.49,743.431L1668.2,743.775L1667.55,741.27L1760.83,740.925L1761.49,743.431Z" style="fill:rgb(173,203,249);fill-rule:nonzero;"/>
            <path d="M1763.64,751.689L1670.36,752.033L1669.7,749.527L1762.99,749.183L1763.64,751.689Z" style="fill:rgb(173,203,249);fill-rule:nonzero;"/>
            <path d="M1765.8,759.947L1672.52,760.292L1671.86,757.785L1765.14,757.441L1765.8,759.947Z" style="fill:rgb(173,203,249);fill-rule:nonzero;"/>
            <path d="M1767.96,768.205L1674.67,768.549L1674.02,766.043L1767.3,765.699L1767.96,768.205Z" style="fill:rgb(173,203,249);fill-rule:nonzero;"/>
            <path d="M1773.21,788.3L1679.92,788.645L1679.27,786.139L1772.55,785.794L1773.21,788.3Z" style="fill:rgb(173,203,249);fill-rule:nonzero;"/>
            <path d="M1775.36,796.558L1682.08,796.903L1681.42,794.396L1774.71,794.052L1775.36,796.558Z" style="fill:rgb(173,203,249);fill-rule:nonzero;"/>
            <path d="M1777.52,804.816L1684.24,805.161L1683.58,802.654L1776.86,802.31L1777.52,804.816Z" style="fill:rgb(173,203,249);fill-rule:nonzero;"/>
            <path d="M1779.68,813.074L1686.39,813.418L1685.74,810.912L1779.02,810.568L1779.68,813.074Z" style="fill:rgb(173,203,249);fill-rule:nonzero;"/>
            <path d="M1781.83,821.332L1688.55,821.676L1687.9,819.17L1781.18,818.826L1781.83,821.332Z" style="fill:rgb(173,203,249);fill-rule:nonzero;"/>
            <path d="M1863.49,1051.31L1727.07,1051.81L1682.83,882.447L1819.25,881.944L1863.49,1051.31Z" style="fill:white;fill-rule:nonzero;"/>
            <path d="M1785.42,904.198L1728.22,904.409L1727.56,901.903L1784.77,901.692L1785.42,904.198Z" style="fill:rgb(173,203,249);fill-rule:nonzero;"/>
            <path d="M1794.55,911.16L1722.74,911.425L1722.08,908.919L1793.9,908.654L1794.55,911.16Z" style="fill:rgb(173,203,249);fill-rule:nonzero;"/>
            <path d="M1814.3,945.628L1721.02,945.973L1720.36,943.466L1813.65,943.122L1814.3,945.628Z" style="fill:rgb(173,203,249);fill-rule:nonzero;"/>
            <path d="M1816.46,953.886L1723.17,954.23L1722.52,951.724L1815.8,951.38L1816.46,953.886Z" style="fill:rgb(173,203,249);fill-rule:nonzero;"/>
            <path d="M1818.61,962.144L1725.33,962.488L1724.68,959.982L1817.96,959.638L1818.61,962.144Z" style="fill:rgb(173,203,249);fill-rule:nonzero;"/>
            <path d="M1820.77,970.402L1727.49,970.746L1726.83,968.24L1820.12,967.896L1820.77,970.402Z" style="fill:rgb(173,203,249);fill-rule:nonzero;"/>
            <path d="M1822.93,978.66L1729.64,979.004L1728.99,976.498L1822.27,976.154L1822.93,978.66Z" style="fill:rgb(173,203,249);fill-rule:nonzero;"/>
            <path d="M1828.18,998.755L1734.89,999.1L1734.24,996.593L1827.52,996.249L1828.18,998.755Z" style="fill:rgb(173,203,249);fill-rule:nonzero;"/>
            <path d="M1830.33,1007.01L1737.05,1007.36L1736.4,1004.85L1829.68,1004.51L1830.33,1007.01Z" style="fill:rgb(173,203,249);fill-rule:nonzero;"/>
            <path d="M1832.49,1015.27L1739.21,1015.62L1738.55,1013.11L1831.84,1012.77L1832.49,1015.27Z" style="fill:rgb(173,203,249);fill-rule:nonzero;"/>
            <path d="M1834.65,1023.53L1741.36,1023.87L1740.71,1021.37L1833.99,1021.02L1834.65,1023.53Z" style="fill:rgb(173,203,249);fill-rule:nonzero;"/>
            <path d="M1836.8,1031.79L1743.52,1032.13L1742.87,1029.63L1836.15,1029.28L1836.8,1031.79Z" style="fill:rgb(173,203,249);fill-rule:nonzero;"/>
            <path d="M1918.84,1263.18L1782.41,1263.68L1738.17,1094.32L1874.6,1093.81L1918.84,1263.18Z" style="fill:white;fill-rule:nonzero;"/>
            <path d="M1840.76,1116.07L1783.56,1116.28L1782.9,1113.77L1840.11,1113.56L1840.76,1116.07Z" style="fill:rgb(173,203,249);fill-rule:nonzero;"/>
            <path d="M1849.89,1123.03L1778.08,1123.3L1777.42,1120.79L1849.24,1120.52L1849.89,1123.03Z" style="fill:rgb(173,203,249);fill-rule:nonzero;"/>
            <path d="M1869.64,1157.5L1776.36,1157.84L1775.7,1155.34L1868.99,1154.99L1869.64,1157.5Z" style="fill:rgb(173,203,249);fill-rule:nonzero;"/>
            <path d="M1871.8,1165.76L1778.51,1166.1L1777.86,1163.59L1871.14,1163.25L1871.8,1165.76Z" style="fill:rgb(173,203,249);fill-rule:nonzero;"/>
            <path d="M1873.96,1174.01L1780.67,1174.36L1780.02,1171.85L1873.3,1171.51L1873.96,1174.01Z" style="fill:rgb(173,203,249);fill-rule:nonzero;"/>
            <path d="M1876.11,1182.27L1782.83,1182.62L1782.17,1180.11L1875.46,1179.77L1876.11,1182.27Z" style="fill:rgb(173,203,249);fill-rule:nonzero;"/>
            <path d="M1878.27,1190.53L1784.99,1190.87L1784.33,1188.37L1877.61,1188.02L1878.27,1190.53Z" style="fill:rgb(173,203,249);fill-rule:nonzero;"/>
            <path d="M1883.52,1210.63L1790.24,1210.97L1789.58,1208.46L1882.86,1208.12L1883.52,1210.63Z" style="fill:rgb(173,203,249);fill-rule:nonzero;"/>
            <path d="M1885.68,1218.88L1792.39,1219.23L1791.74,1216.72L1885.02,1216.38L1885.68,1218.88Z" style="fill:rgb(173,203,249);fill-rule:nonzero;"/>
            <path d="M1887.83,1227.14L1794.55,1227.49L1793.89,1224.98L1887.18,1224.64L1887.83,1227.14Z" style="fill:rgb(173,203,249);fill-rule:nonzero;"/>
            <path d="M1889.99,1235.4L1796.71,1235.74L1796.05,1233.24L1889.33,1232.89L1889.99,1235.4Z" style="fill:rgb(173,203,249);fill-rule:nonzero;"/>
            <path d="M1892.15,1243.66L1798.86,1244L1798.21,1241.5L1891.49,1241.15L1892.15,1243.66Z" style="fill:rgb(173,203,249);fill-rule:nonzero;"/>
            <path d="M1739.46,1264.61L1262.32,1266.37L1125,740.643L1187.15,673.711L1584.73,672.243L1739.46,1264.61Z" style="fill:white;fill-rule:nonzero;"/>
            <path d="M1453.3,761.088L1285.14,761.709L1283.21,754.342L1451.37,753.721L1453.3,761.088Z" style="fill:rgb(173,203,249);fill-rule:nonzero;"/>
            <path d="M1480.15,781.555L1269.02,782.334L1267.1,774.967L1478.22,774.188L1480.15,781.555Z" style="fill:rgb(173,203,249);fill-rule:nonzero;"/>
            <path d="M1538.2,882.882L1263.97,883.895L1262.04,876.527L1536.27,875.515L1538.2,882.882Z" style="fill:rgb(173,203,249);fill-rule:nonzero;"/>
            <path d="M1544.54,907.158L1270.31,908.17L1268.38,900.803L1542.61,899.791L1544.54,907.158Z" style="fill:rgb(173,203,249);fill-rule:nonzero;"/>
            <path d="M1550.88,931.434L1276.65,932.446L1274.73,925.079L1548.95,924.067L1550.88,931.434Z" style="fill:rgb(173,203,249);fill-rule:nonzero;"/>
            <path d="M1557.22,955.71L1282.99,956.723L1281.07,949.355L1555.29,948.343L1557.22,955.71Z" style="fill:rgb(173,203,249);fill-rule:nonzero;"/>
            <path d="M1563.56,979.986L1289.33,980.999L1287.41,973.631L1561.64,972.619L1563.56,979.986Z" style="fill:rgb(173,203,249);fill-rule:nonzero;"/>
            <path d="M1578.99,1039.06L1304.76,1040.07L1302.84,1032.71L1577.07,1031.69L1578.99,1039.06Z" style="fill:rgb(173,203,249);fill-rule:nonzero;"/>
            <path d="M1585.33,1063.34L1311.1,1064.35L1309.18,1056.98L1583.41,1055.97L1585.33,1063.34Z" style="fill:rgb(173,203,249);fill-rule:nonzero;"/>
            <path d="M1591.67,1087.61L1317.44,1088.63L1315.52,1081.26L1589.75,1080.25L1591.67,1087.61Z" style="fill:rgb(173,203,249);fill-rule:nonzero;"/>
            <path d="M1598.01,1111.89L1323.79,1112.9L1321.86,1105.53L1596.09,1104.52L1598.01,1111.89Z" style="fill:rgb(173,203,249);fill-rule:nonzero;"/>
            <path d="M1604.35,1136.17L1330.13,1137.18L1328.2,1129.81L1602.43,1128.8L1604.35,1136.17Z" style="fill:rgb(173,203,249);fill-rule:nonzero;"/>
            <path d="M1125,740.643L1204.56,740.349L1187.15,673.711L1125,740.643Z" style="fill:rgb(173,203,249);fill-rule:nonzero;"/>
            <path d="M2274.23,1676.92L1885.79,1676.92L1885.79,1539.73L2275.47,1539.73C2305.77,1539.73 2330.33,1564.29 2330.33,1594.58L2330.33,1620.82C2330.33,1651.8 2305.21,1676.92 2274.23,1676.92Z" style="fill:rgb(252,236,219);fill-rule:nonzero;"/>
            <path d="M2661.87,1596.17L2661.87,1616.81C2661.87,1627.84 2658.91,1638.17 2653.72,1647.05C2643.31,1664.91 2623.94,1676.92 2601.76,1676.92L1873.89,1676.92C1869.07,1676.92 1865.17,1673.01 1865.17,1668.21L1865.17,1665.11C1865.17,1660.31 1869.07,1656.4 1873.89,1656.4L2317.59,1656.4C2319.97,1653.51 2322.06,1650.38 2323.82,1647.05C2327.98,1639.22 2330.33,1630.29 2330.33,1620.82L2330.33,1594.58C2330.33,1589.76 2329.7,1585.07 2328.53,1580.62C2326.54,1573.07 2322.99,1566.15 2318.24,1560.25L1873.89,1560.25C1869.07,1560.25 1865.17,1556.35 1865.17,1551.53L1865.17,1548.45C1865.17,1543.63 1869.07,1539.73 1873.89,1539.73L2605.43,1539.73C2631.21,1539.73 2652.95,1557.01 2659.7,1580.62C2661.12,1585.56 2661.87,1590.78 2661.87,1596.17Z" style="fill:rgb(105,157,238);fill-rule:nonzero;"/>
            <path d="M2659.7,1580.62L2328.53,1580.62C2326.54,1573.07 2322.99,1566.15 2318.24,1560.25L1873.89,1560.25C1869.07,1560.25 1865.17,1556.35 1865.17,1551.53L1865.17,1548.45C1865.17,1543.63 1869.07,1539.73 1873.89,1539.73L2605.43,1539.73C2631.21,1539.73 2652.95,1557.01 2659.7,1580.62Z" style="fill:rgb(67,89,245);fill-rule:nonzero;"/>
            <path d="M1885.79,1608.32L1939.69,1610.63L1885.79,1612.02L1885.79,1608.32Z" style="fill:rgb(244,210,184);fill-rule:nonzero;"/>
            <path d="M1885.79,1629.85L2014.01,1632.16L1885.79,1633.55L1885.79,1629.85Z" style="fill:rgb(244,210,184);fill-rule:nonzero;"/>
            <path d="M1978.43,1783.34L2391.93,1783.34L2391.93,1676.63L1975.07,1676.63C1946.53,1676.63 1923.4,1699.77 1923.4,1728.31C1923.4,1758.7 1948.03,1783.34 1978.43,1783.34Z" style="fill:rgb(43,71,139);fill-rule:nonzero;"/>
            <path d="M2368.19,1783.34L2838.8,1783.34L2838.8,1676.63L2367,1676.63C2337.98,1676.63 2314.46,1700.15 2314.46,1729.17L2314.46,1729.61C2314.46,1759.28 2338.52,1783.34 2368.19,1783.34Z" style="fill:rgb(252,236,219);fill-rule:nonzero;"/>
            <path d="M2283.04,1783.34L2855.14,1783.34C2859.55,1783.34 2863.12,1779.77 2863.12,1775.36C2863.12,1770.95 2859.55,1767.38 2855.14,1767.38L2283.04,1767.38C2278.63,1767.38 2275.06,1770.95 2275.06,1775.36C2275.06,1779.77 2278.63,1783.34 2283.04,1783.34Z" style="fill:rgb(43,71,139);fill-rule:nonzero;"/>
            <path d="M2283.04,1692.59L2855.14,1692.59C2859.55,1692.59 2863.12,1689.02 2863.12,1684.61C2863.12,1680.2 2859.55,1676.63 2855.14,1676.63L2283.04,1676.63C2278.63,1676.63 2275.06,1680.2 2275.06,1684.61C2275.06,1689.02 2278.63,1692.59 2283.04,1692.59Z" style="fill:rgb(43,71,139);fill-rule:nonzero;"/>
            <path d="M2838.8,1729.99L2775.23,1731.78L2838.8,1732.86L2838.8,1729.99Z" style="fill:rgb(244,210,184);fill-rule:nonzero;"/>
            <path d="M2838.8,1705.43L2687.56,1707.22L2838.8,1708.3L2838.8,1705.43Z" style="fill:rgb(244,210,184);fill-rule:nonzero;"/>
            <path d="M2689.12,1706.86C2689.12,1706.86 2695.6,1711.45 2697.75,1718.99C2698.13,1720.3 2698.37,1721.72 2698.42,1723.2C2698.78,1733.22 2698.42,1755.88 2698.42,1755.88L2717.55,1744.55L2736.64,1755.88L2736.64,1725.16C2736.64,1719.35 2735,1713.71 2731.96,1710.01C2730.49,1708.21 2728.7,1706.86 2726.67,1706.86L2689.12,1706.86Z" style="fill:rgb(105,157,238);fill-rule:nonzero;"/>
            <path d="M2689.12,1706.86C2689.12,1706.86 2695.6,1711.45 2697.75,1718.99L2736.09,1719.44C2736.09,1719.44 2734.59,1708.64 2726.67,1706.86L2689.12,1706.86Z" style="fill:rgb(86,140,219);fill-rule:nonzero;"/>
            <path d="M2320.07,1540.02L2742.55,1540.02L2742.55,1383.24L2318.68,1383.24C2284.85,1383.24 2257.42,1410.66 2257.42,1444.5L2257.42,1477.37C2257.42,1511.97 2285.47,1540.02 2320.07,1540.02Z" style="fill:rgb(252,236,219);fill-rule:nonzero;"/>
            <path d="M2267.36,1444.07L2267.36,1477.81C2267.46,1492.22 2275.44,1504.72 2287.16,1511.41C2292.93,1514.69 2299.6,1516.56 2306.69,1516.56L2765.49,1516.56C2770.87,1516.56 2775.23,1520.92 2775.23,1526.3L2775.23,1530.28C2775.23,1535.66 2770.87,1540.02 2765.49,1540.02L1972.9,1540.02C1950.16,1540.02 1930.06,1528.71 1917.92,1511.41C1910.27,1500.5 1905.77,1487.23 1905.77,1472.89L1905.77,1446.27C1905.77,1436.44 1908.02,1427.14 1912.03,1418.86C1922.23,1397.77 1943.81,1383.24 1968.8,1383.24L2765.49,1383.24C2770.87,1383.24 2775.23,1387.59 2775.23,1392.97L2775.23,1396.95C2775.23,1402.32 2770.87,1406.68 2765.49,1406.68L2305.29,1406.68C2294.29,1406.68 2284.33,1411.37 2277.38,1418.86C2271.22,1425.49 2267.42,1434.33 2267.36,1444.07Z" style="fill:rgb(181,69,60);fill-rule:nonzero;"/>
            <path d="M2742.55,1461.63L2683.73,1464.26L2742.55,1465.85L2742.55,1461.63Z" style="fill:rgb(244,210,184);fill-rule:nonzero;"/>
            <path d="M2742.55,1425.55L2602.62,1428.18L2742.55,1429.77L2742.55,1425.55Z" style="fill:rgb(244,210,184);fill-rule:nonzero;"/>
            <path d="M2604.06,1427.66C2604.06,1427.66 2613.3,1432.63 2616.35,1440.8C2616.9,1442.23 2617.24,1443.76 2617.31,1445.37C2617.82,1456.23 2617.31,1480.8 2617.31,1480.8L2644.58,1468.52L2671.77,1480.8L2671.77,1447.5C2671.77,1441.2 2669.44,1435.08 2665.1,1431.06C2663,1429.12 2660.46,1427.66 2657.57,1427.66L2604.06,1427.66Z" style="fill:rgb(249,151,70);fill-rule:nonzero;"/>
            <path d="M2604.06,1427.66C2604.06,1427.66 2613.3,1432.63 2616.35,1440.8L2670.99,1441.29C2670.99,1441.29 2668.85,1429.59 2657.57,1427.66L2604.06,1427.66Z" style="fill:rgb(237,125,43);fill-rule:nonzero;"/>
            <path d="M2327.42,1325.11C2351.6,1367.19 2382.01,1383.44 2382.01,1383.44L2508.55,1383.44C2508.55,1383.44 2308.97,1293 2327.42,1325.11Z" style="fill:rgb(35,56,98);fill-rule:nonzero;"/>
            <path d="M2424.6,1650.75C2427.9,1654.53 2428.32,1658.75 2426.69,1663.26L2426.65,1663.32C2423.63,1671.66 2413.67,1680.98 2402.08,1690.28C2400.6,1691.47 2399.29,1692.56 2398.14,1693.56C2397.84,1693.83 2397.54,1694.09 2397.25,1694.36C2397.02,1694.56 2396.8,1694.78 2396.57,1694.97C2385.77,1704.93 2389.84,1707.21 2370.43,1727.41C2348.31,1750.43 2333.08,1750.84 2328.75,1748.75C2325.08,1746.96 2332.53,1734.75 2340.78,1721.03C2341.18,1720.37 2341.57,1719.7 2341.98,1719.03C2343.08,1717.2 2344.17,1715.35 2345.27,1713.52C2354.94,1697 2352.45,1689.25 2350.16,1664.68C2348.3,1644.7 2319.09,1553.1 2319.09,1553.1L2361.49,1545.79C2361.49,1545.79 2374.25,1618.74 2388.32,1629.97C2395.84,1635.96 2404.26,1636.04 2411.5,1640.48C2412.01,1640.78 2412.51,1641.1 2413,1641.43C2417.11,1644.15 2421.29,1646.96 2424.6,1650.75Z" style="fill:rgb(255,178,125);fill-rule:nonzero;"/>
            <path d="M2424.6,1650.75C2427.9,1654.53 2428.32,1658.75 2426.69,1663.26L2426.65,1663.32C2422.96,1671.65 2413.24,1680.92 2402.04,1690.19C2400.58,1691.4 2399.29,1692.52 2398.14,1693.56C2397.84,1693.83 2397.54,1694.09 2397.25,1694.36C2397.02,1694.56 2396.8,1694.78 2396.57,1694.97C2385.77,1704.93 2389.84,1707.21 2370.43,1727.41C2348.31,1750.43 2333.08,1750.84 2328.75,1748.75C2325.08,1746.96 2332.53,1734.75 2340.78,1721.03C2345.09,1719.45 2365.09,1711.32 2380.22,1691.97C2393.54,1674.97 2402.42,1653.13 2411.5,1640.48C2412.01,1640.78 2412.51,1641.1 2413,1641.43C2417.11,1644.15 2421.29,1646.96 2424.6,1650.75Z" style="fill:rgb(35,56,98);fill-rule:nonzero;"/>
            <path d="M2082.73,1624.27C2080.11,1637.36 2061.46,1635.17 2040.62,1630.08C2019.77,1624.99 2024.73,1631.04 1995.07,1627.76C1965.4,1624.47 1956.42,1613.41 1955.51,1609C1954.7,1605.09 1969.36,1603.71 1985.08,1601.9C1987.06,1601.68 1989.04,1601.43 1991.03,1601.19C2008.78,1598.96 2021.78,1587.51 2037.9,1578.1C2053.17,1569.19 2075.96,1532.89 2075.96,1532.89L2116.64,1536.11C2116.64,1536.11 2095.29,1568.54 2087.04,1582.63C2082.18,1590.92 2082.44,1601.89 2083.04,1610.35C2083.36,1614.96 2083.66,1619.66 2082.73,1624.27Z" style="fill:rgb(255,178,125);fill-rule:nonzero;"/>
            <path d="M2040.62,1630.08C2019.77,1624.99 2024.73,1631.04 1995.07,1627.76C1965.4,1624.47 1956.42,1613.41 1955.51,1609C1954.7,1605.09 1969.36,1603.71 1985.08,1601.9L1985.23,1602.2C1985.23,1602.2 2003.02,1614.81 2027.71,1615.4C2047.83,1615.89 2069.15,1610.13 2083.04,1610.35C2083.36,1614.96 2083.66,1619.66 2082.73,1624.27C2080.11,1637.36 2061.46,1635.17 2040.62,1630.08Z" style="fill:rgb(35,56,98);fill-rule:nonzero;"/>
            <path d="M2238.62,1364.16L2276.65,1466.48L2326.3,1600.09C2326.3,1600.09 2339.77,1601.4 2352.67,1597.68C2364.55,1594.25 2378.18,1585.27 2378.18,1585.27C2378.18,1585.27 2364.4,1441.81 2338.68,1359.46C2332.09,1338.32 2324.7,1321.22 2316.55,1311.6C2276.69,1264.48 2238.62,1364.16 2238.62,1364.16Z" style="fill:rgb(35,56,98);fill-rule:nonzero;"/>
            <path d="M2277.29,1201.65C2302.2,1193.61 2373.26,1203.93 2444.63,1217.9L2459.58,1193.25L2613.75,1181.21C2613.75,1181.21 2664.63,1294.03 2636.78,1365.92C2632.68,1376.48 2624.55,1383.26 2610.68,1383.48L2608.43,1383.48C2608.43,1383.48 2516.67,1383.43 2486.87,1383.43C2410.2,1383.43 2324.61,1330.73 2313.53,1328.51C2295.41,1324.89 2288.16,1361.13 2270.04,1399.19C2251.91,1437.25 2099.68,1567.74 2099.68,1567.74C2099.68,1567.74 2076.28,1567.97 2066.61,1564.35C2056.22,1560.45 2052.42,1555.39 2052.42,1555.39C2052.42,1555.39 2221.1,1219.77 2277.29,1201.65Z" style="fill:rgb(43,71,139);fill-rule:nonzero;"/>
            <path d="M2460.49,980.931C2515.39,1011.16 2626.76,1073.83 2627.34,1073.42C2627.34,1073.42 2668.28,1088.85 2691.5,1073.42C2730.21,1047.72 2750.97,978.532 2680.18,918.994C2644.87,889.3 2619.79,882.071 2615.98,834.658C2613.91,808.936 2578.75,724.042 2520.33,731.894C2515.45,732.55 2485.39,733.952 2465.64,744.323C2415.32,770.752 2378.18,969.231 2460.49,980.931Z" style="fill:rgb(35,56,98);fill-rule:nonzero;"/>
            <path d="M2506.5,955.201C2506.26,955.356 2533.51,964.661 2551.74,956.59C2568.88,949.014 2581.87,920.808 2581.61,920.793C2573.82,920.433 2565.25,913.615 2558.66,868.875L2555.34,870.066L2499.5,890.158C2499.5,890.158 2503.55,908.075 2506.16,925.133C2508.37,939.455 2509.55,953.175 2506.5,955.201Z" style="fill:rgb(255,178,125);fill-rule:nonzero;"/>
            <path d="M2499.5,890.158C2499.5,890.158 2503.55,908.075 2506.16,925.133C2538.24,919.36 2550.82,887.406 2555.34,870.066L2499.5,890.158Z" style="fill:rgb(237,151,93);fill-rule:nonzero;"/>
            <path d="M2491.19,907.941C2491.19,907.941 2567.58,897.688 2560.46,850.21C2553.35,802.734 2558.41,769.436 2509.33,773.975C2460.26,778.514 2453.52,798.048 2452.04,814.473C2450.56,830.897 2471.13,909.385 2491.19,907.941Z" style="fill:rgb(255,178,125);fill-rule:nonzero;"/>
            <path d="M2454.82,788.449C2454.82,788.449 2503.73,830.593 2536.99,833.991C2570.26,837.388 2582.85,826.71 2582.85,826.71C2582.85,826.71 2563.24,810.431 2551.44,784.159C2547.97,776.415 2540.62,771.101 2532.16,770.371C2508.41,768.32 2463.38,767.385 2454.82,788.449Z" style="fill:rgb(35,56,98);fill-rule:nonzero;"/>
            <path d="M2485.39,784.674C2485.39,784.674 2469.03,800.493 2463.88,812.226C2458.91,823.548 2457.42,850.628 2461.38,861.383C2461.38,861.383 2435.89,811.818 2450.32,787.737C2465.62,762.202 2485.39,784.674 2485.39,784.674Z" style="fill:rgb(35,56,98);fill-rule:nonzero;"/>
            <path d="M2442.17,1067.74C2444.48,1222.38 2442.81,1190.07 2459.72,1204.74C2463.8,1208.27 2475.26,1210.38 2490.34,1211.37C2537.76,1214.52 2621.11,1206.71 2624.28,1197.95C2635.22,1167.62 2627.5,1158.2 2636.63,1111.78C2637.58,1106.85 2638.75,1101.5 2640.13,1095.68C2647.74,1063.8 2655.15,1052.95 2628.16,1001.73C2603.68,955.328 2578.25,917.669 2575.96,919.028C2511.38,957.366 2506.17,925.142 2506.17,925.142C2506.17,925.142 2441.04,992.307 2442.17,1067.74Z" style="fill:white;fill-rule:nonzero;"/>
            <path d="M2276.65,1466.48L2326.3,1600.09C2326.3,1600.09 2339.77,1601.4 2352.67,1597.68C2364.55,1594.25 2378.18,1585.27 2378.18,1585.27C2378.18,1585.27 2364.4,1441.81 2338.68,1359.46L2276.65,1466.48Z" style="fill:rgb(43,71,139);fill-rule:nonzero;"/>
            <path d="M2506.16,925.133C2506.16,925.133 2439.71,936.399 2431.91,965.012C2424.1,993.624 2378.18,1161.83 2378.18,1161.83C2378.18,1161.83 2411.96,1167.9 2427.57,1152.29C2443.18,1136.69 2481.88,1007.5 2481.88,1007.5L2506.16,925.133Z" style="fill:white;fill-rule:nonzero;"/>
            <path d="M2490.34,1211.37C2537.76,1214.52 2621.11,1206.71 2624.28,1197.95C2635.22,1167.62 2627.5,1158.2 2636.63,1111.78L2613.75,1047.38C2613.75,1047.38 2617.54,1119.1 2596.38,1137.96C2575.26,1156.82 2509.79,1174.37 2499.51,1190.13C2494.55,1197.7 2491.29,1205.28 2490.34,1211.37Z" style="fill:rgb(235,243,255);fill-rule:nonzero;"/>
            <path d="M2544.67,1181.21C2544.67,1181.21 2497.89,1170.8 2490.34,1174.95C2482.79,1179.1 2464.34,1194.22 2462.03,1199.48C2459.72,1204.74 2478.84,1195.48 2485.05,1193.82C2489.08,1192.74 2499.68,1196.42 2504.93,1198.17C2527,1205.53 2540.53,1201.74 2540.53,1201.74L2544.67,1181.21Z" style="fill:rgb(255,178,125);fill-rule:nonzero;"/>
            <path d="M2576,918.994C2576,918.994 2638.81,922.864 2660.56,953.192C2691.17,995.885 2751.89,1177.83 2717.09,1202.1C2677.9,1229.43 2538.72,1209.25 2538.72,1209.25C2538.72,1209.25 2534.09,1187.6 2540.53,1177.13C2546.98,1166.66 2651.7,1149.74 2656.53,1144.91C2661.36,1140.07 2596.12,1050.66 2596.12,1036.16C2596.12,1021.66 2576,918.994 2576,918.994Z" style="fill:white;fill-rule:nonzero;"/>
            <path d="M2488.07,1187.97C2488.07,1187.97 2478.27,1200.61 2475.06,1202.12C2471.84,1203.63 2469.77,1203.25 2469.77,1203.25L2476.37,1191.36L2488.07,1187.97Z" style="fill:rgb(255,178,125);fill-rule:nonzero;"/>
            <path d="M2490.34,1174.95L2461.84,1188.79C2461.84,1188.79 2463.05,1190.77 2466.56,1190.61C2470.07,1190.45 2478.92,1187.21 2478.92,1187.21L2490.34,1174.95Z" style="fill:rgb(255,178,125);fill-rule:nonzero;"/>
            <path d="M2475.06,1221.49L2249.63,1221.49L2181.81,1052.85L2406.9,1052.85L2475.06,1221.49Z" style="fill:rgb(249,151,70);fill-rule:nonzero;"/>
            <path d="M2246.98,1214.92L2544.67,1214.92L2544.67,1221.49L2249.63,1221.49L2246.98,1214.92Z" style="fill:rgb(237,125,43);fill-rule:nonzero;"/>
            <path d="M2306.53,1137.17C2304.83,1131.24 2308.26,1126.44 2314.19,1126.44C2320.12,1126.44 2326.3,1131.24 2328,1137.17C2329.7,1143.1 2326.27,1147.9 2320.34,1147.9C2314.42,1147.9 2308.23,1143.1 2306.53,1137.17Z" style="fill:white;fill-rule:nonzero;"/>
            <path d="M426.472,1287.72L421.671,1291.04C416.546,1294.6 409.486,1293.32 405.934,1288.19L378.012,1247.91C374.46,1242.78 375.739,1235.72 380.865,1232.17L387.741,1227.4C388.746,1226.71 390.125,1226.96 390.82,1227.96C391.517,1228.97 391.267,1230.34 390.262,1231.04L383.386,1235.81C382.175,1236.65 381.317,1237.81 380.847,1239.1C380.105,1241.13 380.327,1243.48 381.65,1245.39L409.571,1285.67C411.733,1288.79 416.03,1289.57 419.149,1287.41L423.951,1284.08C427.07,1281.92 427.849,1277.62 425.687,1274.5L407.152,1247.76C406.456,1246.75 406.706,1245.37 407.71,1244.68C408.715,1243.98 410.094,1244.23 410.79,1245.24L429.325,1271.98C432.877,1277.1 431.598,1284.16 426.472,1287.72Z" style="fill:rgb(67,89,245);fill-rule:nonzero;"/>
            <path d="M457.08,1327.44L448.473,1333.41C440.482,1338.95 429.153,1336.49 423.219,1327.93L381.241,1267.36C380.545,1266.36 380.795,1264.98 381.8,1264.28C382.804,1263.59 384.183,1263.84 384.879,1264.84L426.857,1325.4C431.401,1331.96 439.967,1333.92 445.952,1329.77L454.559,1323.81C460.544,1319.66 461.716,1310.95 457.172,1304.39L409.357,1235.41C404.813,1228.85 396.248,1226.89 390.262,1231.04C389.258,1231.74 387.879,1231.49 387.183,1230.48C386.486,1229.48 386.736,1228.1 387.741,1227.4C395.732,1221.86 407.061,1224.32 412.995,1232.89L460.81,1301.87C466.744,1310.43 465.071,1321.91 457.08,1327.44Z" style="fill:rgb(67,89,245);fill-rule:nonzero;"/>
            <path d="M514.827,1643.77L515.862,1652.3C516.968,1661.41 510.458,1669.72 501.35,1670.82L429.766,1679.51C420.658,1680.61 412.349,1674.1 411.244,1665L409.761,1652.78C409.544,1650.99 410.816,1649.37 412.601,1649.15C414.386,1648.94 416.009,1650.21 416.226,1651.99L417.708,1664.21C418.381,1669.76 423.438,1673.72 428.981,1673.05L500.565,1664.36C506.109,1663.69 510.071,1658.63 509.398,1653.09L508.363,1644.55C507.69,1639.01 502.633,1635.05 497.09,1635.72L449.57,1641.49C447.785,1641.7 446.162,1640.43 445.946,1638.65C445.729,1636.86 447.001,1635.24 448.786,1635.02L496.306,1629.26C505.413,1628.15 513.722,1634.66 514.827,1643.77Z" style="fill:rgb(67,89,245);fill-rule:nonzero;"/>
            <path d="M587.531,1631.2L589.387,1646.5C591.11,1660.7 580.135,1673.75 564.921,1675.6L457.3,1688.66C455.515,1688.88 453.892,1687.6 453.675,1685.82C453.458,1684.03 454.73,1682.41 456.515,1682.19L564.136,1669.13C575.786,1667.72 584.213,1657.92 582.923,1647.28L581.066,1631.99C579.776,1621.35 569.248,1613.85 557.599,1615.26L435.012,1630.14C423.362,1631.56 414.935,1641.36 416.226,1651.99C416.442,1653.78 415.17,1655.4 413.386,1655.62C411.601,1655.83 409.978,1654.56 409.761,1652.78C408.038,1638.58 419.013,1625.52 434.227,1623.68L556.814,1608.8C572.028,1606.95 585.808,1617 587.531,1631.2Z" style="fill:rgb(67,89,245);fill-rule:nonzero;"/>
            <path d="M1734.63,630.79C1734.63,625.31 1739.07,620.867 1744.55,620.867C1750.03,620.867 1754.47,625.31 1754.47,630.79C1754.47,636.27 1750.03,640.712 1744.55,640.712C1739.07,640.712 1734.63,636.27 1734.63,630.79Z" style="fill:rgb(249,151,70);fill-rule:nonzero;"/>
            <path d="M3084.86,1790.28L191.221,1790.28C189.414,1790.28 187.936,1788.8 187.936,1787L187.936,1785.88C187.936,1784.07 189.414,1782.59 191.222,1782.59L3084.86,1782.59C3086.67,1782.59 3088.15,1784.07 3088.15,1785.88L3088.15,1787C3088.15,1788.8 3086.67,1790.28 3084.86,1790.28Z" style="fill:rgb(46,53,82);fill-rule:nonzero;"/>
        </g>
    </g>
</svg>
