<?xml version="1.0" encoding="UTF-8" standalone="no"?>
<!DOCTYPE svg PUBLIC "-//W3C//DTD SVG 1.1//EN" "http://www.w3.org/Graphics/SVG/1.1/DTD/svg11.dtd">
<svg width="100%" height="100%" viewBox="0 0 451 451" version="1.1" xmlns="http://www.w3.org/2000/svg" xmlns:xlink="http://www.w3.org/1999/xlink" xml:space="preserve" xmlns:serif="http://www.serif.com/" style="fill-rule:evenodd;clip-rule:evenodd;stroke-linejoin:round;stroke-miterlimit:2;">
    <g>
        <path d="M135.232,382.211L141.886,382.21L141.118,329.6L136,329.6L135.232,382.211Z" style="fill:rgb(140,111,111);fill-rule:nonzero;"/>
        <path d="M141.419,350.187L141.118,329.6L136,329.6L135.7,350.187L141.419,350.187Z" style="fill:rgb(109,80,80);fill-rule:nonzero;"/>
        <path d="M146.668,310.886L130.449,310.886L132.321,335.008L144.797,335.008L146.668,310.886Z" style="fill:rgb(109,80,80);fill-rule:nonzero;"/>
        <path d="M179.538,390.528C178.434,384.157 160.509,379.091 138.559,379.091C116.608,379.091 98.683,384.157 97.579,390.528L179.538,390.528Z" style="fill:rgb(140,111,111);fill-rule:nonzero;"/>
        <path d="M179.593,304.856C179.593,298.195 160.598,297.994 137.935,297.994C115.273,297.994 97.524,298.195 97.524,304.856C97.524,311.517 115.896,316.917 138.559,316.917C161.221,316.917 179.593,311.517 179.593,304.856Z" style="fill:rgb(109,80,80);fill-rule:nonzero;"/>
        <path d="M99.86,117.853C84.867,113.89 60.301,113.867 45.98,117.282C41.762,118.287 39.03,122.381 39.73,126.661L62.36,265.078C63.012,269.07 66.461,272.001 70.506,272.001L120.271,272.001C125.361,272.001 129.239,267.438 128.417,262.415L105.871,124.509C105.348,121.306 102.998,118.682 99.86,117.853Z" style="fill:rgb(255,151,74);fill-rule:nonzero;"/>
        <path d="M107.901,117.853C92.907,113.89 68.341,113.867 54.02,117.282C49.802,118.287 47.071,122.381 47.77,126.661L70.4,265.078C71.053,269.07 74.502,272.001 78.546,272.001L128.311,272.001C133.402,272.001 137.279,267.438 136.458,262.415L113.912,124.509C113.388,121.306 111.038,118.682 107.901,117.853Z" style="fill:rgb(255,151,74);fill-rule:nonzero;"/>
        <path d="M89.048,115.099C76.645,114.322 63.221,115.088 54.02,117.282C49.802,118.287 47.071,122.381 47.77,126.661L58.695,193.483C62.185,157.462 73.773,128.094 89.048,115.099Z" style="fill:rgb(255,186,95);fill-rule:nonzero;"/>
        <path d="M229.26,254.534C179.316,250.098 129.032,250.46 89.207,253.148C86.97,272.469 97.426,288.221 106.045,297.509L224.231,297.509L229.26,254.534Z" style="fill:rgb(96,60,79);fill-rule:nonzero;"/>
        <path d="M114.23,284.894C133.568,252.247 189.842,251.979 189.842,251.979L178.9,238.315L101.961,251.831L94.891,264.515L114.23,284.894Z" style="fill:rgb(79,46,65);fill-rule:nonzero;"/>
        <path d="M217.747,253.605C219.253,254.961 220.072,256.387 220.072,257.861C220.072,266.742 190.901,273.942 154.917,273.942C118.933,273.942 89.761,266.742 89.761,257.861C89.761,256.136 90.876,254.474 92.916,252.915C91.68,252.993 90.424,253.066 89.207,253.148C86.97,272.469 97.426,288.221 106.045,297.509L224.231,297.509L229.26,254.534C225.422,254.193 221.584,253.89 217.747,253.605Z" style="fill:rgb(79,46,65);fill-rule:nonzero;"/>
        <path d="M145.232,295.083L91.545,295.083C88.569,295.083 86.157,297.495 86.157,300.471L86.157,300.716C86.157,303.691 88.569,306.104 91.545,306.104L145.232,306.104C148.207,306.104 150.62,303.691 150.62,300.716L150.62,300.471C150.62,297.495 148.207,295.083 145.232,295.083Z" style="fill:rgb(255,151,74);fill-rule:nonzero;"/>
        <path d="M122.104,295.083L92.353,295.083C89.659,295.083 87.474,297.267 87.474,299.962L87.474,300.184C87.474,302.879 89.659,305.064 92.353,305.064L122.104,305.064C124.799,305.064 126.983,302.879 126.983,300.184L126.983,299.962C126.983,297.267 124.799,295.083 122.104,295.083Z" style="fill:rgb(255,186,95);fill-rule:nonzero;"/>
        <path d="M186.705,397.181C185.49,393.713 182.221,391.702 179.403,392.689C176.585,393.677 175.285,397.289 176.5,400.757C177.716,404.225 180.985,406.236 183.803,405.249C186.621,404.262 187.921,400.65 186.705,397.181Z" style="fill:rgb(140,111,111);fill-rule:nonzero;"/>
        <path d="M141.79,397.181C140.575,393.713 137.305,391.702 134.487,392.689C131.669,393.677 130.369,397.289 131.585,400.757C132.8,404.225 136.07,406.236 138.888,405.249C141.706,404.262 143.005,400.65 141.79,397.181Z" style="fill:rgb(140,111,111);fill-rule:nonzero;"/>
        <path d="M100.825,397.181C99.61,393.713 96.34,391.702 93.522,392.689C90.704,393.677 89.405,397.289 90.62,400.757C91.835,404.225 95.105,406.236 97.922,405.249C100.741,404.262 102.04,400.65 100.825,397.181Z" style="fill:rgb(140,111,111);fill-rule:nonzero;"/>
        <path d="M216.533,200.319C197.965,185.252 181.811,137.879 169.958,127.897C169.958,127.897 158.38,165.836 167.255,206.735C171.219,225.003 198.689,239.97 204.794,239.122C210.898,238.274 224.571,206.84 216.533,200.319Z" style="fill:rgb(196,161,249);fill-rule:nonzero;"/>
        <path d="M207.983,217.086C189.751,220.159 170.421,195.66 164.809,162.366C164.683,161.619 164.575,160.877 164.465,160.135C163.417,173.536 163.598,189.88 167.255,206.735C171.219,225.003 198.689,239.97 204.794,239.122C209.047,238.531 217.441,222.609 219.427,210.797C216.123,214.157 212.279,216.362 207.983,217.086Z" style="fill:rgb(200,176,237);fill-rule:nonzero;"/>
        <path d="M231.519,220.994C234.14,207.76 226.021,197.597 213.519,198.625C201.234,199.635 189.822,211.068 187.886,223.853C186.002,236.294 193.793,245.676 205.414,245.1C217.231,244.514 228.971,233.86 231.519,220.994Z" style="fill:rgb(226,218,186);fill-rule:nonzero;"/>
        <path d="M287.616,219.811C284.999,218.164 271.513,216.965 263.32,216.935L262.938,236.13C275.355,241.727 290.126,238.1 290.612,235.334C291.098,232.564 290.195,221.434 287.616,219.811Z" style="fill:rgb(237,185,132);fill-rule:nonzero;"/>
        <path d="M283.407,205.881C282.234,206.051 277.094,213.276 265.423,217.177L275.701,223.113C278.794,222.008 287.378,212.121 287.586,209.87C287.818,207.359 285.112,205.635 283.407,205.881Z" style="fill:rgb(237,185,132);fill-rule:nonzero;"/>
        <path d="M299.284,215.413C298.281,215.389 289.942,216.977 281.209,219.779L286.555,225.418C286.555,225.418 300.059,221.247 301.075,219.582C302.087,217.921 300.743,215.449 299.284,215.413Z" style="fill:rgb(237,185,132);fill-rule:nonzero;"/>
        <path d="M303.604,224.836C302.725,224.151 293.33,225.356 284.228,226.701L288.913,232.821C288.913,232.821 302.954,230.871 304.163,229.452C305.367,228.038 304.48,225.517 303.604,224.836Z" style="fill:rgb(237,185,132);fill-rule:nonzero;"/>
        <path d="M273.972,238.921C286.031,242.722 301.68,238.247 302.369,237.117C303.057,235.989 303.93,232.628 302.14,232.645C300.334,232.66 291.393,234.703 289.304,233.939C287.19,233.167 274.367,226.755 274.119,227.023C273.871,227.291 273.972,238.921 273.972,238.921Z" style="fill:rgb(237,185,132);fill-rule:nonzero;"/>
        <path d="M270.533,238.315C270.533,238.315 208.059,242.972 199.787,238.217C191.515,233.463 199.612,199.827 215.497,200.261C231.383,200.695 274.414,221.541 274.414,221.541L270.533,238.315Z" style="fill:rgb(237,185,132);fill-rule:nonzero;"/>
        <path d="M201.11,211.308C194.499,221.319 195.561,235.788 199.787,238.217C208.059,242.972 270.533,238.315 270.533,238.315C270.533,238.315 210.719,208.106 201.11,211.308Z" style="fill:rgb(231,155,105);fill-rule:nonzero;"/>
        <path d="M192.011,282.49C189.233,267.407 178.9,260.495 157.69,258.832C136.479,257.168 131.922,282.578 135.232,296.123C137.93,307.162 177.236,368.07 196.367,394.271C196.367,394.271 197.834,314.098 192.011,282.49Z" style="fill:rgb(96,60,79);fill-rule:nonzero;"/>
        <path d="M192.011,282.49C190.803,275.932 187.927,270.031 183.322,265.314C178.836,270.683 166.428,274.55 151.787,274.55C145.927,274.55 140.428,273.927 135.642,272.841C133.603,281.072 132.742,290.396 134.192,296.331C136.89,307.37 177.236,368.07 196.367,394.271C196.367,394.271 197.834,314.098 192.011,282.49Z" style="fill:rgb(79,46,65);fill-rule:nonzero;"/>
        <path d="M261.048,282.49C258.269,267.407 246.689,255.782 225.479,254.118C204.269,252.454 203.453,281.746 206.764,295.291C209.462,306.331 246.273,368.07 265.403,394.271C265.403,394.271 266.871,314.098 261.048,282.49Z" style="fill:rgb(96,60,79);fill-rule:nonzero;"/>
        <path d="M261.048,282.49C258.642,269.426 249.618,258.969 233.468,255.319C227.968,259.731 206.949,267.796 206.14,268.05C203.493,276.97 204.342,288.776 206.036,295.706C208.734,306.746 246.273,368.07 265.403,394.271C265.403,394.271 266.871,314.098 261.048,282.49Z" style="fill:rgb(79,46,65);fill-rule:nonzero;"/>
        <path d="M89.484,272.556C127.191,247.603 189.842,251.979 189.842,251.979C189.842,251.979 170.166,198.528 175.988,177.18C181.811,155.831 176.837,135.22 169.958,127.897C161.363,118.748 137.445,107.321 125.25,108.975C108.892,111.193 86.532,127.572 78.104,146.535C64.795,176.479 89.484,272.556 89.484,272.556Z" style="fill:rgb(200,176,237);fill-rule:nonzero;"/>
        <path d="M120.052,169.07C114.179,145.61 99.743,130.046 89.531,131.467C83.587,137.774 78.586,144.724 75.621,151.395C62.313,181.338 89.484,272.556 89.484,272.556C100.083,265.542 127.01,257.904 139.604,254.775C134.192,226.462 126.711,195.67 120.052,169.07Z" style="fill:rgb(200,176,237);fill-rule:nonzero;"/>
        <path d="M356.672,69.605L241.799,69.605C236.466,69.605 232.006,75.355 231.501,82.884L223.863,196.607C223.284,205.22 228.06,212.668 234.161,212.668L349.034,212.668C354.368,212.668 358.827,206.918 359.333,199.389L366.971,85.666C367.55,77.053 362.774,69.605 356.672,69.605Z" style="fill:rgb(99,83,86);fill-rule:nonzero;"/>
        <path d="M366.884,86.962L366.971,85.666C367.55,77.053 362.774,69.604 356.672,69.604L241.799,69.604C236.466,69.604 232.006,75.355 231.501,82.884L229.174,117.529L366.884,86.962Z" style="fill:rgb(109,93,96);fill-rule:nonzero;"/>
        <path d="M325.606,212.668L349.035,212.668C352.79,212.668 356.105,209.811 357.918,205.496L325.606,212.668Z" style="fill:rgb(109,93,96);fill-rule:nonzero;"/>
        <path d="M367.301,69.605L252.428,69.605C247.095,69.605 242.635,75.355 242.13,82.884L234.492,196.607C233.913,205.22 238.689,212.668 244.79,212.668L359.663,212.668C364.997,212.668 369.456,206.918 369.962,199.389L377.6,85.666C378.178,77.053 373.402,69.605 367.301,69.605Z" style="fill:rgb(86,70,73);fill-rule:nonzero;"/>
        <path d="M282.103,94.26C314.712,78.395 349.811,76.965 377.464,87.687L377.6,85.666C378.178,77.053 373.402,69.604 367.301,69.604L252.428,69.604C247.095,69.604 242.635,75.355 242.13,82.884L239.145,127.322C250.27,114.161 264.8,102.679 282.103,94.26Z" style="fill:rgb(81,65,68);fill-rule:nonzero;"/>
        <path d="M328.618,168.03L294.516,168.03L290.98,212.668L325.083,212.668L328.618,168.03Z" style="fill:rgb(76,59,63);fill-rule:nonzero;"/>
        <rect x="275.523" y="232.076" width="42.351" height="8.318" style="fill:rgb(86,70,73);fill-rule:nonzero;"/>
        <path d="M327.072,164.842L294.099,164.842L303.176,241.226L343.127,241.226L327.072,164.842Z" style="fill:rgb(86,70,73);fill-rule:nonzero;"/>
        <path d="M331.439,164.842L298.466,164.842L307.543,241.226L347.494,241.226L331.439,164.842Z" style="fill:rgb(99,83,86);fill-rule:nonzero;"/>
        <rect x="104.872" y="243.305" width="4.991" height="162.195" style="fill:rgb(242,236,209);fill-rule:nonzero;"/>
        <rect x="161.848" y="243.305" width="4.991" height="162.195" style="fill:rgb(242,236,209);fill-rule:nonzero;"/>
        <rect x="339.847" y="243.305" width="4.991" height="162.195" style="fill:rgb(226,217,181);fill-rule:nonzero;"/>
        <rect x="400.15" y="243.305" width="4.991" height="162.195" style="fill:rgb(226,217,181);fill-rule:nonzero;"/>
        <path d="M113.329,152.227C113.606,139.196 109.447,122.837 97.247,125.887C85.048,128.937 65.877,155.834 72.531,188.273C79.185,220.712 101.129,236.512 112.774,239.008L136.54,200.36C111.416,190.892 113.051,165.257 113.329,152.227Z" style="fill:rgb(200,176,237);fill-rule:nonzero;"/>
        <path d="M79.436,172.499C77.498,163.888 76.752,155.48 77.046,147.711C72.051,158.664 69.365,172.838 72.531,188.273C79.185,220.712 101.129,236.512 112.774,239.008L122.656,222.938C105.174,224.47 86.239,202.723 79.436,172.499Z" style="fill:rgb(196,161,249);fill-rule:nonzero;"/>
        <path d="M142.312,219.33C144.933,206.096 136.814,195.933 124.312,196.961C112.027,197.971 100.615,209.404 98.678,222.19C96.795,234.631 104.586,244.012 116.207,243.436C128.024,242.85 139.764,232.197 142.312,219.33Z" style="fill:rgb(226,218,186);fill-rule:nonzero;"/>
        <path d="M199.445,219.811C196.828,218.164 183.343,216.965 175.15,216.935L174.767,236.13C187.185,241.727 201.956,238.1 202.441,235.334C202.927,232.564 202.024,221.434 199.445,219.811Z" style="fill:rgb(237,185,132);fill-rule:nonzero;"/>
        <path d="M195.236,205.881C194.063,206.051 188.924,213.276 177.252,217.177L187.53,223.113C190.624,222.008 199.207,212.121 199.416,209.87C199.648,207.359 196.941,205.635 195.236,205.881Z" style="fill:rgb(237,185,132);fill-rule:nonzero;"/>
        <path d="M211.114,215.413C210.11,215.389 201.772,216.977 193.039,219.779L198.385,225.418C198.385,225.418 211.889,221.247 212.904,219.582C213.917,217.921 212.573,215.449 211.114,215.413Z" style="fill:rgb(237,185,132);fill-rule:nonzero;"/>
        <path d="M215.434,224.836C214.554,224.151 205.16,225.356 196.058,226.701L200.743,232.821C200.743,232.821 214.783,230.871 215.992,229.452C217.196,228.038 216.309,225.517 215.434,224.836Z" style="fill:rgb(237,185,132);fill-rule:nonzero;"/>
        <path d="M185.801,238.921C197.86,242.722 213.509,238.247 214.199,237.117C214.887,235.989 215.759,232.628 213.969,232.645C212.163,232.66 203.223,234.703 201.133,233.939C199.02,233.167 186.196,226.755 185.948,227.023C185.701,227.291 185.801,238.921 185.801,238.921Z" style="fill:rgb(237,185,132);fill-rule:nonzero;"/>
        <path d="M181.811,238.315C181.811,238.315 119.337,242.972 111.065,238.217C102.793,233.463 106.348,204.305 121.715,200.261C142.787,194.716 185.692,221.541 185.692,221.541L181.811,238.315Z" style="fill:rgb(237,185,132);fill-rule:nonzero;"/>
        <path d="M153.255,229.942C133.079,225.507 117.121,216.267 112.405,207.228C105.309,217.358 104.861,234.651 111.065,238.217C119.337,242.972 181.811,238.315 181.811,238.315C181.811,238.315 164.26,232.362 153.255,229.942Z" style="fill:rgb(231,155,105);fill-rule:nonzero;"/>
        <rect x="72.849" y="238.315" width="338.53" height="7.901" style="fill:rgb(242,236,209);fill-rule:nonzero;"/>
        <rect x="172.661" y="238.315" width="238.718" height="7.901" style="fill:rgb(226,217,181);fill-rule:nonzero;"/>
        <path d="M277.437,405.5L266.104,405.5C266.104,405.5 258.539,392.462 263.469,390.845C268.398,389.229 270.308,401.19 270.308,401.19L277.437,405.5Z" style="fill:rgb(209,199,159);fill-rule:nonzero;"/>
        <path d="M208.955,405.5L197.622,405.5C197.622,405.5 190.057,392.462 194.986,390.845C199.915,389.229 201.825,401.19 201.825,401.19L208.955,405.5Z" style="fill:rgb(209,199,159);fill-rule:nonzero;"/>
        <path d="M120.052,137.047C136.318,133.362 147.292,124.154 149.666,114.716C140.877,110.74 131.518,108.125 125.25,108.975C113.011,110.634 97.414,120.223 86.804,132.889C86.132,133.597 85.464,134.358 84.803,135.157C93.084,137.1 108.722,139.613 120.052,137.047Z" style="fill:rgb(196,161,249);fill-rule:nonzero;"/>
        <path d="M153.564,47.572C138.28,41.324 111.947,51.201 111.947,51.201C111.947,51.201 101.99,73.373 115.011,96.321L145.901,91.312C157.983,73.574 153.564,47.572 153.564,47.572Z" style="fill:rgb(137,48,68);fill-rule:nonzero;"/>
        <path d="M122.738,127.239C134.475,127.458 144.286,121.59 146.882,113.516C138.87,110.087 130.567,107.425 124.907,108.079C118.18,108.858 110.171,113.255 102.3,118.886C106.782,123.783 114.26,127.081 122.738,127.239Z" style="fill:rgb(229,221,186);fill-rule:nonzero;"/>
        <path d="M108.534,114.73L117.557,78.615L142.816,79.717L142.156,111.889C140.326,125.194 114.438,124.258 108.534,114.73Z" style="fill:rgb(210,117,88);fill-rule:nonzero;"/>
        <path d="M123.523,59.441C117.281,68.671 120.417,105.792 124.506,109.806C128.595,113.821 146.305,112.968 148.321,110.865C150.337,108.762 155.886,66.132 151.422,60.97C146.958,55.809 126.497,55.044 123.523,59.441Z" style="fill:rgb(237,185,132);fill-rule:nonzero;"/>
        <path d="M139.944,78.083C139.986,76.259 138.991,74.814 137.717,74.85C136.438,74.887 135.359,76.403 135.31,78.24C135.261,80.083 136.267,81.539 137.553,81.489C138.833,81.438 139.902,79.912 139.944,78.083Z" style="fill:rgb(90,73,73);fill-rule:nonzero;"/>
        <path d="M154.661,78.207C154.49,76.375 153.411,75.016 152.25,75.166C151.083,75.317 150.269,76.932 150.436,78.777C150.604,80.626 151.693,81.995 152.864,81.831C154.03,81.667 154.833,80.043 154.661,78.207Z" style="fill:rgb(90,73,73);fill-rule:nonzero;"/>
        <path d="M141.807,65.84L134.032,66.393C133.058,66.462 132.376,67.467 132.512,68.637L132.782,70.962C132.918,72.134 133.821,73.019 134.795,72.936L142.573,72.272C143.511,72.193 144.158,71.2 144.021,70.055L143.75,67.787C143.613,66.645 142.745,65.773 141.807,65.84Z" style="fill:rgb(137,48,68);fill-rule:nonzero;"/>
        <path d="M154.579,66.845L148.63,66.107C147.891,66.015 147.27,66.797 147.243,67.855L147.189,69.959C147.162,71.023 147.744,71.957 148.487,72.042L154.468,72.728C155.195,72.811 155.798,72.026 155.817,70.976L155.854,68.898C155.873,67.853 155.302,66.935 154.579,66.845Z" style="fill:rgb(137,48,68);fill-rule:nonzero;"/>
        <path d="M146.307,96.77C142.814,97.777 138.903,95.022 137.137,90.175L135.375,90.738C137.016,95.986 141.143,99.006 144.787,97.954C145.768,97.672 146.612,97.091 147.328,96.327C147.001,96.502 146.667,96.666 146.307,96.77Z" style="fill:rgb(210,117,88);fill-rule:nonzero;"/>
        <path d="M140.764,100.353C140.865,99.652 139.975,98.945 138.777,98.774C137.579,98.604 136.526,99.034 136.426,99.735C136.326,100.435 137.216,101.142 138.414,101.313C139.612,101.484 140.664,101.054 140.764,100.353Z" style="fill:rgb(210,117,88);fill-rule:nonzero;"/>
        <path d="M118.98,89.926L127.566,90.043C127.566,90.043 131.837,53.553 125.333,51.948C118.828,50.343 115.603,72.68 115.603,72.68L118.98,89.926Z" style="fill:rgb(137,48,68);fill-rule:nonzero;"/>
        <path d="M146.097,74.249L131.172,74.249L130.834,85.954L145.759,85.954L146.097,74.249Z" style="fill:rgb(242,236,209);fill-rule:nonzero;"/>
        <path d="M158.768,74.249L148.207,74.249L147.968,85.954L158.529,85.954L158.768,74.249Z" style="fill:rgb(242,236,209);fill-rule:nonzero;"/>
        <rect x="144.052" y="74.249" width="6.377" height="3.743" style="fill:rgb(242,236,209);fill-rule:nonzero;"/>
        <path d="M131.402,74.249L113.779,78.962L113.779,80.626L131.402,77.992L131.402,74.249Z" style="fill:rgb(242,236,209);fill-rule:nonzero;"/>
        <path d="M113.779,78.962L111.734,81.457L112.809,83.675L115.2,79.551L113.779,78.962Z" style="fill:rgb(242,236,209);fill-rule:nonzero;"/>
        <path d="M121.499,94.019C113.042,88.589 112.179,80.059 116.567,77.334C120.955,74.609 123.387,84.228 124.012,88.291C124.636,92.354 121.499,94.019 121.499,94.019Z" style="fill:rgb(237,185,132);fill-rule:nonzero;"/>
        <path d="M120.361,90.819C114.95,87.345 114.398,81.887 117.206,80.144C120.013,78.4 121.569,84.554 121.969,87.154C122.369,89.754 120.361,90.819 120.361,90.819Z" style="fill:rgb(210,117,88);fill-rule:nonzero;"/>
        <path d="M121.407,91.625C118.642,89.85 118.365,87.066 119.803,86.177C121.241,85.289 122.031,88.429 122.233,89.756C122.435,91.082 121.407,91.625 121.407,91.625Z" style="fill:rgb(237,185,132);fill-rule:nonzero;"/>
        <path d="M237.403,199.102L245.041,85.379C245.547,77.85 250.006,72.1 255.339,72.1L370.213,72.1C371.569,72.1 372.854,72.486 374.034,73.153C372.231,70.954 369.888,69.604 367.301,69.604L252.428,69.604C247.095,69.604 242.635,75.355 242.13,82.884L234.492,196.607C234.042,203.305 236.837,209.282 240.968,211.615C238.519,208.628 237.07,204.063 237.403,199.102Z" style="fill:rgb(71,55,58);fill-rule:nonzero;"/>
        <path d="M144.52,76.12L133.079,76.12L132.82,84.949L144.261,84.949L144.52,76.12Z" style="fill:rgb(237,185,132);fill-rule:nonzero;"/>
        <path d="M157.69,76.12L149.759,76.12L149.58,84.949L157.51,84.949L157.69,76.12Z" style="fill:rgb(237,185,132);fill-rule:nonzero;"/>
        <path d="M140.776,80.167C140.815,78.469 139.889,77.124 138.703,77.159C137.513,77.192 136.508,78.604 136.463,80.314C136.417,82.028 137.354,83.384 138.551,83.337C139.742,83.29 140.736,81.869 140.776,80.167Z" style="fill:rgb(90,73,73);fill-rule:nonzero;"/>
        <path d="M155.221,80.646C155.31,79.184 154.629,77.982 153.696,77.958C152.76,77.933 151.921,79.105 151.826,80.576C151.731,82.052 152.42,83.263 153.361,83.277C154.299,83.292 155.13,82.112 155.221,80.646Z" style="fill:rgb(90,73,73);fill-rule:nonzero;"/>
        <path d="M147.021,80.059C147.021,80.059 146.724,80.49 146.322,81.173C148.155,84.868 150.208,91.087 144.175,89.599C144.209,89.757 144.203,89.925 144.252,90.078C154.507,94.121 148.602,82.402 147.021,80.059Z" style="fill:rgb(210,117,88);fill-rule:nonzero;"/>
    </g>
</svg>
